<svg width="24" height="24" viewBox="0 0 24 24" fill="none" xmlns="http://www.w3.org/2000/svg">
<path fill-rule="evenodd" clip-rule="evenodd" d="M2 5.5C2 4.25736 3.00736 3.25 4.25 3.25H19.75C20.9926 3.25 22 4.25736 22 5.5V6.5C22 7.38343 21.4909 8.14794 20.75 8.51612V18.5C20.75 19.7426 19.7426 20.75 18.5 20.75H5.5C4.25736 20.75 3.25 19.7426 3.25 18.5V8.51612C2.50914 8.14794 2 7.38343 2 6.5V5.5ZM4.75 8.75H19.25V18.5C19.25 18.9142 18.9142 19.25 18.5 19.25H5.5C5.08579 19.25 4.75 18.9142 4.75 18.5V8.75ZM20.5 6.5C20.5 6.91421 20.1642 7.25 19.75 7.25H4.25C3.83579 7.25 3.5 6.91421 3.5 6.5V5.5C3.5 5.08579 3.83579 4.75 4.25 4.75H19.75C20.1642 4.75 20.5 5.08579 20.5 5.5V6.5ZM10 11C9.58579 11 9.25 11.3358 9.25 11.75C9.25 12.1642 9.58579 12.5 10 12.5H14C14.4142 12.5 14.75 12.1642 14.75 11.75C14.75 11.3358 14.4142 11 14 11H10Z" fill="#344054"/>
</svg>
