<svg width="24" height="24" viewBox="0 0 24 24" fill="none" xmlns="http://www.w3.org/2000/svg">
<path fill-rule="evenodd" clip-rule="evenodd" d="M10 3C8.75736 3 7.75 4.00736 7.75 5.25V6H4.74982C3.50718 6 2.49982 7.00736 2.49982 8.25V17.25C2.49982 18.4926 3.50718 19.5 4.74982 19.5H19.25C20.4927 19.5 21.5 18.4926 21.5 17.25V8.25C21.5 7.00736 20.4927 6 19.25 6H16.25V5.25C16.25 4.00736 15.2426 3 14 3H10ZM14.75 6V5.25C14.75 4.83579 14.4142 4.5 14 4.5H10C9.58579 4.5 9.25 4.83579 9.25 5.25V6H14.75ZM8.5 7.5H4.74982C4.3356 7.5 3.99982 7.83579 3.99982 8.25V9.25537L11.7047 12.5574C11.8933 12.6383 12.1069 12.6383 12.2955 12.5574L20 9.25553V8.25C20 7.83579 19.6642 7.5 19.25 7.5H15.5H8.5ZM3.99982 17.25V10.8873L11.1138 13.9361C11.6798 14.1787 12.3204 14.1787 12.8864 13.9361L20 10.8875V17.25C20 17.6642 19.6642 18 19.25 18H4.74982C4.3356 18 3.99982 17.6642 3.99982 17.25Z" fill="#344054"/>
</svg>
