<svg width="24" height="24" viewBox="0 0 24 24" fill="none" xmlns="http://www.w3.org/2000/svg">
<path fill-rule="evenodd" clip-rule="evenodd" d="M5.45928 4.3986C5.16639 4.10571 4.69152 4.10571 4.39862 4.3986C4.10573 4.6915 4.10573 5.16637 4.39862 5.45926L6.04647 7.10711C4.67705 8.2158 3.62319 9.6987 3.04028 11.3999C2.98629 11.5575 2.98629 11.7285 3.04028 11.8861C4.3154 15.6075 7.84412 18.2843 12 18.2843C13.5202 18.2843 14.9564 17.9262 16.2291 17.2898L18.5408 19.6014C18.8337 19.8943 19.3085 19.8943 19.6014 19.6014C19.8943 19.3085 19.8943 18.8336 19.6014 18.5407L5.45928 4.3986ZM15.0988 16.1594L12.7018 13.7624C12.4833 13.834 12.2498 13.8727 12.0074 13.8727H11.9895C10.758 13.8727 9.75972 12.8744 9.75972 11.6429C9.75972 11.3955 9.80001 11.1574 9.87441 10.935L7.11405 8.17469C5.96781 9.06542 5.07115 10.2623 4.54706 11.643C5.68821 14.6492 8.59568 16.7843 12 16.7843C13.0989 16.7843 14.1461 16.5619 15.0988 16.1594ZM12.5743 9.48577L14.1645 11.0759C13.9611 10.3 13.3502 9.68914 12.5743 9.48577ZM19.4529 11.643C19.0411 12.728 18.3991 13.6996 17.5867 14.4982L18.6473 15.5587C19.6798 14.5408 20.4795 13.2875 20.9597 11.8861C21.0137 11.7286 21.0137 11.5575 20.9597 11.3999C19.6846 7.67853 16.1559 5.00166 12 5.00166C10.8341 5.00166 9.71751 5.21235 8.68622 5.59768L9.87632 6.78778C10.5525 6.60128 11.2647 6.50166 12 6.50166C15.4043 6.50166 18.3118 8.63679 19.4529 11.643Z" fill="#344054"/>
</svg>
