<svg width="24" height="24" viewBox="0 0 24 24" fill="none" xmlns="http://www.w3.org/2000/svg">
<path fill-rule="evenodd" clip-rule="evenodd" d="M12 16.7843C8.59568 16.7843 5.68821 14.6492 4.54706 11.643C5.68821 8.63678 8.59568 6.50166 12 6.50166C15.4043 6.50166 18.3118 8.6368 19.4529 11.643C18.3118 14.6492 15.4043 16.7843 12 16.7843ZM12 5.00166C7.84413 5.00166 4.31541 7.67851 3.04028 11.3999C2.98629 11.5575 2.98629 11.7285 3.04028 11.8861C4.3154 15.6075 7.84412 18.2843 12 18.2843C16.1559 18.2843 19.6846 15.6075 20.9597 11.8861C21.0137 11.7286 21.0137 11.5575 20.9597 11.3999C19.6846 7.67853 16.1559 5.00166 12 5.00166ZM11.9896 9.41306C10.7581 9.41306 9.75978 10.4114 9.75978 11.6429C9.75978 12.8744 10.7581 13.8727 11.9896 13.8727H12.0074C13.2389 13.8727 14.2373 12.8744 14.2373 11.6429C14.2373 10.4114 13.2389 9.41306 12.0074 9.41306H11.9896Z" fill="#344054"/>
</svg>
