<svg width="32" height="32" viewBox="0 0 32 32" fill="none" xmlns="http://www.w3.org/2000/svg">
<path d="M0 8.42105C0 3.77023 3.77023 0 8.42105 0H23.5789C28.2298 0 32 3.77023 32 8.42105V23.5789C32 28.2298 28.2298 32 23.5789 32H8.42105C3.77023 32 0 28.2298 0 23.5789V8.42105Z" fill="#465FFF"/>
<g filter="url(#filter0_d_9459_1072)">
<path d="M8.42188 8.42249C8.42188 7.49233 9.17592 6.73828 10.1061 6.73828C11.0362 6.73828 11.7903 7.49233 11.7903 8.42249V23.5804C11.7903 24.5106 11.0362 25.2646 10.1061 25.2646C9.17592 25.2646 8.42188 24.5106 8.42188 23.5804V8.42249Z" fill="white"/>
</g>
<g filter="url(#filter1_d_9459_1072)">
<path d="M14.7422 15.1569C14.7422 14.2267 15.4962 13.4727 16.4264 13.4727C17.3566 13.4727 18.1106 14.2267 18.1106 15.1569V23.5779C18.1106 24.5081 17.3566 25.2621 16.4264 25.2621C15.4962 25.2621 14.7422 24.5081 14.7422 23.5779V15.1569Z" fill="white" fill-opacity="0.9" shape-rendering="crispEdges"/>
</g>
<g filter="url(#filter2_d_9459_1072)">
<path d="M21.0547 10.9459C21.0547 10.0158 21.8087 9.26172 22.7389 9.26172C23.6691 9.26172 24.4231 10.0158 24.4231 10.9459V23.5775C24.4231 24.5077 23.6691 25.2617 22.7389 25.2617C21.8087 25.2617 21.0547 24.5077 21.0547 23.5775V10.9459Z" fill="white" fill-opacity="0.7" shape-rendering="crispEdges"/>
</g>
<defs>
<filter id="filter0_d_9459_1072" x="7.42188" y="6.23828" width="5.36719" height="20.5264" filterUnits="userSpaceOnUse" color-interpolation-filters="sRGB">
<feFlood flood-opacity="0" result="BackgroundImageFix"/>
<feColorMatrix in="SourceAlpha" type="matrix" values="0 0 0 0 0 0 0 0 0 0 0 0 0 0 0 0 0 0 127 0" result="hardAlpha"/>
<feOffset dy="0.5"/>
<feGaussianBlur stdDeviation="0.5"/>
<feComposite in2="hardAlpha" operator="out"/>
<feColorMatrix type="matrix" values="0 0 0 0 0 0 0 0 0 0 0 0 0 0 0 0 0 0 0.12 0"/>
<feBlend mode="normal" in2="BackgroundImageFix" result="effect1_dropShadow_9459_1072"/>
<feBlend mode="normal" in="SourceGraphic" in2="effect1_dropShadow_9459_1072" result="shape"/>
</filter>
<filter id="filter1_d_9459_1072" x="13.7422" y="12.9727" width="5.36719" height="13.7891" filterUnits="userSpaceOnUse" color-interpolation-filters="sRGB">
<feFlood flood-opacity="0" result="BackgroundImageFix"/>
<feColorMatrix in="SourceAlpha" type="matrix" values="0 0 0 0 0 0 0 0 0 0 0 0 0 0 0 0 0 0 127 0" result="hardAlpha"/>
<feOffset dy="0.5"/>
<feGaussianBlur stdDeviation="0.5"/>
<feComposite in2="hardAlpha" operator="out"/>
<feColorMatrix type="matrix" values="0 0 0 0 0 0 0 0 0 0 0 0 0 0 0 0 0 0 0.12 0"/>
<feBlend mode="normal" in2="BackgroundImageFix" result="effect1_dropShadow_9459_1072"/>
<feBlend mode="normal" in="SourceGraphic" in2="effect1_dropShadow_9459_1072" result="shape"/>
</filter>
<filter id="filter2_d_9459_1072" x="20.0547" y="8.76172" width="5.36719" height="18" filterUnits="userSpaceOnUse" color-interpolation-filters="sRGB">
<feFlood flood-opacity="0" result="BackgroundImageFix"/>
<feColorMatrix in="SourceAlpha" type="matrix" values="0 0 0 0 0 0 0 0 0 0 0 0 0 0 0 0 0 0 127 0" result="hardAlpha"/>
<feOffset dy="0.5"/>
<feGaussianBlur stdDeviation="0.5"/>
<feComposite in2="hardAlpha" operator="out"/>
<feColorMatrix type="matrix" values="0 0 0 0 0 0 0 0 0 0 0 0 0 0 0 0 0 0 0.12 0"/>
<feBlend mode="normal" in2="BackgroundImageFix" result="effect1_dropShadow_9459_1072"/>
<feBlend mode="normal" in="SourceGraphic" in2="effect1_dropShadow_9459_1072" result="shape"/>
</filter>
</defs>
</svg>
