<svg width="24" height="24" viewBox="0 0 24 24" fill="none" xmlns="http://www.w3.org/2000/svg">
<path fill-rule="evenodd" clip-rule="evenodd" d="M5.49994 3.25C4.2573 3.25 3.24994 4.25736 3.24994 5.5V18.5C3.24994 19.7426 4.2573 20.75 5.49994 20.75H18.5C19.7426 20.75 20.75 19.7426 20.75 18.5V5.5C20.75 4.25736 19.7426 3.25 18.5 3.25H5.49994ZM4.74994 5.5C4.74994 5.08579 5.08573 4.75 5.49994 4.75H18.5C18.9142 4.75 19.25 5.08579 19.25 5.5V18.5C19.25 18.9142 18.9142 19.25 18.5 19.25H5.49994C5.08573 19.25 4.74994 18.9142 4.74994 18.5V5.5ZM6.24998 9.7143C6.24998 9.30008 6.58577 8.9643 6.99998 8.9643L17 8.96429C17.4142 8.96429 17.75 9.30008 17.75 9.71429C17.75 10.1285 17.4142 10.4643 17 10.4643L6.99998 10.4643C6.58577 10.4643 6.24998 10.1285 6.24998 9.7143ZM6.24998 14.2857C6.24998 13.8715 6.58577 13.5357 6.99998 13.5357H17C17.4142 13.5357 17.75 13.8715 17.75 14.2857C17.75 14.6999 17.4142 15.0357 17 15.0357H6.99998C6.58577 15.0357 6.24998 14.6999 6.24998 14.2857Z" fill="#344054"/>
</svg>
