<?xml version="1.0" standalone="no"?>
<!DOCTYPE svg PUBLIC "-//W3C//DTD SVG 20010904//EN"
 "http://www.w3.org/TR/2001/REC-SVG-20010904/DTD/svg10.dtd">
<svg version="1.0" xmlns="http://www.w3.org/2000/svg"
 width="739.000000pt" height="956.000000pt" viewBox="0 0 739.000000 956.000000"
 preserveAspectRatio="xMidYMid meet">

<g transform="translate(0.000000,956.000000) scale(0.100000,-0.100000)"
fill="#000000" stroke="none">
<path d="M64 9513 c-9 -21 -24 -58 -35 -82 -10 -24 -19 -48 -19 -54 0 -5 151
-158 335 -339 l335 -330 0 -2491 0 -2492 528 -528 529 -529 84 35 84 35 3
2546 2 2546 -105 0 -105 0 0 -2417 0 -2418 -405 405 -405 405 0 2490 0 2490
-277 277 -278 278 840 0 840 0 317 -317 316 -318 4 -4313 3 -4312 84 -35 c46
-20 88 -34 92 -33 5 2 247 239 539 526 l530 524 0 3806 0 3807 338 338 337
337 878 -2 877 -3 -285 -274 -285 -274 0 -2540 0 -2540 -400 -401 -400 -401 0
2448 0 2447 -105 0 -105 0 0 -2574 0 -2573 91 -38 91 -38 112 114 c62 63 296
299 519 525 l407 411 1 2539 1 2539 161 155 c89 85 244 234 344 331 l183 176
-34 84 -34 84 -1053 3 -1054 2 -397 -397 -398 -398 0 -3806 0 -3806 -415 -408
-415 -407 0 4228 0 4229 -383 383 -382 382 -1008 0 -1008 0 -15 -37z"/>
</g>
</svg>
